<?xml version="1.0" encoding="utf-8"?>
<!-- Generator: Adobe Illustrator 24.1.0, SVG Export Plug-In . SVG Version: 6.00 Build 0)  -->
<svg version="1.1" id="Layer_1" xmlns="http://www.w3.org/2000/svg" xmlns:xlink="http://www.w3.org/1999/xlink" x="0px" y="0px"
	 viewBox="0 0 1600 400" style="enable-background:new 0 0 1600 400;" xml:space="preserve">
<style type="text/css">
	.st0{fill:#FFFFFF;}
	.st1{stroke:#000000;stroke-width:0.25;stroke-miterlimit:10;}
	.st2{font-family:'MyriadPro-Regular';}
	.st3{font-size:519.0582px;}
</style>
<path d="M205.83,36.68c0.51-0.08,1.02-0.17,1.34-0.22c0.5-1.51,0.97-2.92,1.39-4.19c-3.93-0.14-5.53,1.82-4.82,6.8
	c0.83,0.07,1.7,0.15,2.58,0.22c0.86,0.07,1.72,0.11,2.73-0.6c-1.05-0.43-2.11-0.87-3.16-1.3C205.87,37.17,205.85,36.92,205.83,36.68
	z"/>
<path d="M192.61,46.07c-1.39,0.18-2.63,0.34-3.73,0.48c0.7,2.66,1.29,4.89,1.98,7.52c0.47-0.65,0.78-1.26,1.23-1.64
	c0.45-0.38,1.05-0.52,1.57-0.76C191.96,49.07,191.96,49.07,192.61,46.07z"/>
<path d="M204.43,40.5c-0.19,1.88-0.27,2.73-0.38,3.78l2.91,0.03c-0.54,2.72,1.4,2.69,2.6,3.38c0.28,0.16,0.96-0.15,1.16-0.49
	c0.18-0.32,0.14-1.23-0.09-1.43C208.82,44.13,206.93,42.6,204.43,40.5z"/>
<path d="M184.55,55.29c-2.1-2.86-2.1-2.86-6.29-0.17c0.72,0.55,1.36,1.03,2.26,1.72C181.44,54.98,182.63,53.73,184.55,55.29z"/>
<path d="M164.88,40.36c0.06-2.06-0.59-3.03-1.79-2.89c-1.12,0.13-1.83,1.07-1.51,2.85C162.63,40.34,163.71,40.35,164.88,40.36z"/>
<path d="M203.19,25.93c-0.6,0.89-1.19,1.78-2.02,3.02c0.95,0.15,1.55,0.25,2.43,0.39c0.08-1.16,0.15-2.21,0.23-3.26
	C203.62,26.03,203.41,25.98,203.19,25.93z"/>
<path d="M173.95,47.39c0.05-2.61,0.01-4.15-2.4-3.45C172.3,45.01,172.89,45.86,173.95,47.39z"/>
<path d="M195.37,54.74c0.94,2.77,1.82,2.12,3.39,1.15C197.47,55.45,196.77,55.21,195.37,54.74z"/>
<path d="M196.31,44.18c-1.67-1.23-2.16-0.63-1.82,1.56C195.24,45.1,195.77,44.64,196.31,44.18z"/>
<path d="M153,78.01c0.54,0.58,0.86,0.93,1.18,1.29c0.27-0.3,0.75-0.6,0.75-0.9c0.01-0.33-0.37-0.81-0.69-0.96
	C154.04,77.34,153.61,77.71,153,78.01z"/>
<path d="M158.01,80.48c0.11,0.57,0.22,1.14,0.33,1.7c0.19-0.03,0.38-0.06,0.58-0.08c-0.04-0.55-0.07-1.11-0.11-1.66
	C158.53,80.46,158.27,80.47,158.01,80.48z"/>
<path class="st0" d="M802.1,291.13"/>
<path class="st0" d="M800.17,158.79"/>
<path class="st0" d="M800.3,213.05"/>
<path class="st1" d="M1036.48,322.57"/>
<path d="M162.87,48.01c0.7,2.15,1.15,3.55,1.69,5.22c0.62,0.13,1.49,0.32,2.55,0.54c0.43-1.06,0.86-2.1,1.4-3.43
	C166.84,49.64,165.25,48.99,162.87,48.01z"/>
<path d="M166.68,43.64c-1.06-1.36-1.93-2.47-3.24-4.15C163.79,44.01,163.95,44.2,166.68,43.64z"/>
<path d="M170.01,36.54c2.16,3.18,2.16,3.18,3.82,1C172.59,37.08,171.77,35.64,170.01,36.54z"/>
<path d="M159.78,56.54c-0.52,0.74-0.95,1.14-1.11,1.66c-0.07,0.22,0.59,1.03,0.67,0.98c0.44-0.26,0.9-0.64,1.13-1.13
	C160.57,57.85,160.14,57.28,159.78,56.54z"/>
<path d="M173.74,46.67c-1.98,0.18-2.39,1.02-2.05,2.3c0.07,0.27,1.12,0.5,1.18,0.38C173.22,48.64,173.4,47.82,173.74,46.67z"/>
<path d="M157.12,23.96c0.36,0.64,0.71,1.28,1.07,1.93c0.25-0.22,0.5-0.45,0.74-0.67c-0.41-0.6-0.83-1.2-1.24-1.8
	C157.5,23.6,157.31,23.78,157.12,23.96z"/>
<path d="M164.35,59.8c0.2-0.96,0.4-1.91,0.71-3.41c-2.01,0.85-2.11,1.88-1.61,3.17"/>
<path d="M165.01,32.71c-0.61,0.15-1.23,0.28-1.83,0.47c-0.04,0.01-0.01,0.66,0.04,0.67c0.61,0.12,1.23,0.18,1.85,0.26
	C165.04,33.65,165.03,33.18,165.01,32.71z"/>
<path d="M164.11,50.14c-0.08-0.85-0.17-1.7-0.29-2.95C162.25,48.46,162.88,49.33,164.11,50.14z"/>
<path d="M180.18,38.63c-0.23,0.72-0.46,1.44-0.69,2.16c0.22,0.12,0.43,0.23,0.65,0.35c0.3-0.66,0.6-1.32,0.9-1.98
	C180.76,38.98,180.47,38.8,180.18,38.63z"/>
<path d="M159.77,76.3c-0.5-0.23-0.99-0.47-1.49-0.7c-0.11,0.28-0.23,0.56-0.34,0.84c0.54,0.14,1.08,0.29,1.62,0.43
	C159.62,76.68,159.69,76.49,159.77,76.3z"/>
<path class="st1" d="M859.77,382.02"/>
<path class="st1" d="M859.77,378.59"/>
<path d="M173.43,23.52c0.54,0.58,0.86,0.93,1.18,1.29c0.27-0.3,0.75-0.6,0.75-0.9c0.01-0.33-0.37-0.81-0.69-0.96
	C174.46,22.85,174.04,23.22,173.43,23.52z"/>
<path d="M178.43,26c0.11,0.57,0.22,1.14,0.33,1.7c0.19-0.03,0.38-0.06,0.58-0.08c-0.04-0.55-0.07-1.11-0.11-1.66
	C178.96,25.97,178.7,25.98,178.43,26z"/>
<path d="M642.62,365.35c-0.61,0.15-1.23,0.28-1.83,0.47c-0.04,0.01-0.01,0.66,0.04,0.67c0.61,0.12,1.23,0.18,1.85,0.26
	C642.66,366.28,642.64,365.81,642.62,365.35z"/>
<path class="st0" d="M420.98,180.54c3.65,0.14,7.3,0.43,11.15,0.67"/>
<path class="st0" d="M400.33,226.94"/>
<path class="st0" d="M423.44,309.26c0.42-0.89,0.84-1.78,1.27-2.68c-0.26-0.17-0.52-0.35-0.78-0.52c-0.44,0.88-0.89,1.76-1.33,2.64
	C422.88,308.89,423.16,309.08,423.44,309.26z"/>
<g>
	<g>
		<path d="M1070.55,375.71h-27.31V31.73h27.31V375.71z"/>
	</g>
	<g>
		<path d="M1246.19,351.31c0,7.18-2.03,13.04-6.09,17.58c-4.06,4.54-9.3,6.81-15.72,6.81h-80.75c-6.42,0-11.66-2.27-15.72-6.81
			c-4.06-4.54-6.09-10.4-6.09-17.58V56.13c0-7.18,2.03-13.04,6.09-17.58c4.06-4.54,9.3-6.81,15.72-6.81h80.75
			c6.42,0,11.66,2.27,15.72,6.81c4.06,4.54,6.09,10.41,6.09,17.58v80.01h-27.51V58.77h-69.55v289.91h69.55V229.77h-32.81v-26.38
			h60.31V351.31z"/>
	</g>
	<g>
		<path d="M1423.59,375.71h-27.31V210.43h-74.06v165.29h-27.31V31.73h27.31v151.22h74.06V31.73h27.31V375.71z"/>
	</g>
	<g>
		<path d="M1578.6,58.77h-47.54v316.94h-27.31V58.77h-47.94V31.73h122.79V58.77z"/>
	</g>
</g>
<path d="M1401.76,119.76c-1.04-1.17-1.81-2.05-2.58-2.92C1398.02,120.41,1399.11,120.87,1401.76,119.76"/>
<path d="M1405.82,99.04c0.66,0.66,1.14,1.45,1.41,1.35c0.55-0.19,0.99-0.85,1.47-1.31c-0.32-0.46-0.7-1.35-0.95-1.3
	C1407.18,97.89,1406.66,98.46,1405.82,99.04z"/>
<line class="st0" x1="660.73" y1="373.39" x2="703.76" y2="373.39"/>
<g>
	<path class="st1" d="M494.44,366.96c-9.65,1.8-19.29,3.51-28.94,5.14c-1.69,0.28-3.33,0.53-4.93,0.77h33.87V366.96z"/>
	<polygon class="st1" points="440.41,345.43 494.81,343.96 494.81,259.76 440.41,259.76 	"/>
	<path class="st1" d="M786.46,22.42H81.32c-19.58,0-35.46,13.33-35.46,29.77v320.68h247.65V135.43h24.36v6.61
		c8.06-1.63,16.18-3.34,24.36-5.14c9.77-1.96,17.89-2.94,24.36-2.94c13.43,0,20.15,8.89,20.15,26.68v53.11h-23.99v-49.2l-44.87,1.96
		v206.36h109.14c-6.81-3.59-10.23-11.66-10.23-24.26v-86.89c0-18.27,6.9-27.41,20.7-27.41h57.33V162.6h-52.38v40.63H418.8v-40.14
		c0-18.44,6.84-27.66,20.51-27.66h58.61c13.67,0,20.51,9.22,20.51,27.66v209.79h73.77l-44.1-237.44h25.09l30.4,187.48l30.77-187.48
		h24.36l-43.92,237.44h88.4c-9.74-2.43-14.63-11.39-14.63-26.96V163.08c0-18.44,6.84-27.66,20.51-27.66h58.61
		c13.67,0,20.51,9.22,20.51,27.66v85.66l-8.24,11.5h-67.77v86.15h52.38v-43.57h23.63v43.08c0,15.56-4.89,24.53-14.63,26.96h15.64
		c9.75,0,17.65-6.64,17.65-14.82V39.57C806.88,30.1,797.74,22.42,786.46,22.42z M248.4,113.59h-29.64V32.03h-74.96v305.63h74.96
		V212.3h-35.36v-27.8h65.01v155.94c0,7.57-2.19,13.75-6.56,18.54c-4.38,4.79-10.03,7.18-16.94,7.18h-87.03
		c-6.92,0-12.57-2.39-16.94-7.18c-4.38-4.79-6.56-10.97-6.56-18.54V29.25H248.4V113.59z M711.84,100.12
		c-19.45-1.93-33.44-17.61-31.25-35.03c1.93-15.28,15.67-26.82,32.15-28.12c-7.4,4.4-12.64,11.55-13.71,20
		c-1.93,15.27,10.51,29.04,27.78,30.75c7.33,0.73,14.35-0.84,20.16-4.05C740.28,94.69,726.61,101.58,711.84,100.12z"/>
	<rect x="712.21" y="162.6" class="st1" width="52.38" height="71.71"/>
</g>
<text transform="matrix(0.832 0 0 1 762.3577 372.6531)" class="st2 st3">N</text>
</svg>
